<?xml version="1.0" encoding="UTF-8" standalone="no"?>
<svg
   xmlns:dc="http://purl.org/dc/elements/1.1/"
   xmlns:cc="http://creativecommons.org/ns#"
   xmlns:rdf="http://www.w3.org/1999/02/22-rdf-syntax-ns#"
   xmlns:svg="http://www.w3.org/2000/svg"
   xmlns="http://www.w3.org/2000/svg"
   xmlns:sodipodi="http://sodipodi.sourceforge.net/DTD/sodipodi-0.dtd"
   xmlns:inkscape="http://www.inkscape.org/namespaces/inkscape"
   version="1.1"
   width="16"
   height="16"
   viewBox="-0.956 0 16 16"
   id="svg3765"
   sodipodi:docname="icon.svg"
   inkscape:export-filename="/media/void/Shared/devvoid/Triskele/icon.png"
   inkscape:export-xdpi="384"
   inkscape:export-ydpi="384"
   inkscape:version="0.92.5 (2060ec1f9f, 2020-04-08)">
  <defs
     id="defs3769" />
  <sodipodi:namedview
     pagecolor="#ffffff"
     bordercolor="#666666"
     borderopacity="1"
     objecttolerance="10"
     gridtolerance="10"
     guidetolerance="10"
     inkscape:pageopacity="0"
     inkscape:pageshadow="2"
     inkscape:window-width="1848"
     inkscape:window-height="1016"
     id="namedview3767"
     showgrid="false"
     inkscape:zoom="32"
     inkscape:cx="3.3445276"
     inkscape:cy="6.5427897"
     inkscape:window-x="72"
     inkscape:window-y="27"
     inkscape:window-maximized="1"
     inkscape:current-layer="svg3765"
     fit-margin-top="1"
     fit-margin-left="1"
     fit-margin-right="1"
     fit-margin-bottom="1" />
  <metadata
     id="metadata3761">
    <rdf:RDF>
      <cc:Work
         rdf:about="">
        <dc:format>image/svg+xml</dc:format>
        <dc:type
           rdf:resource="http://purl.org/dc/dcmitype/StillImage" />
        <dc:title />
      </cc:Work>
    </rdf:RDF>
  </metadata>
  <path
     d="M 6.4932467,1.019577 C 8.4193565,0.82473417 10.111328,2.1060811 10.279138,3.8908521 10.401214,5.1891322 9.780946,6.2004899 8.856078,6.6548015 7.8587585,7.1447531 6.7767951,6.8372987 6.2515902,6.2791246 5.4124385,5.3872762 5.8240791,3.6793425 7.0034141,3.7835276 7.198372,3.8006997 7.6542669,3.9637701 7.594115,4.4007166 7.5463148,4.7481058 7.1091365,4.5444609 7.0570942,4.9105821 7.0082253,5.2539454 7.345986,5.493367 7.6209413,5.5277722 8.1873134,5.5986202 8.526154,5.240929 8.694955,4.9373938 9.248249,3.9426753 8.46729,2.8620764 7.6209413,2.54912 5.9126963,1.917518 4.2476318,3.4583865 4.372045,5.3130694 4.465872,6.7117775 5.3491979,7.6358855 6.4932198,8.07702 7.1321229,8.3233908 7.8952793,8.398806 8.614395,8.2380467 9.275346,8.0902236 9.890644,7.8116472 10.628182,7.8086952 c 1.408719,-0.0054 2.325611,0.4889316 3.007213,1.1002177 0.821563,0.7366992 1.510119,1.8706231 1.396232,3.4347881 -0.105639,1.449914 -1.077424,2.600372 -2.255444,3.059138 -1.999366,0.778675 -4.112754,-0.494514 -4.134934,-2.468786 -0.01611,-1.423669 1.233981,-2.674606 2.631315,-2.173571 0.450604,0.161617 0.825053,0.584823 0.912918,0.992866 0.198826,0.922926 -0.612748,1.339209 -0.966599,1.07338 -0.293779,-0.220769 0.09319,-0.468214 -0.134269,-0.724542 -0.362095,-0.408096 -1.014802,0.129681 -1.04716,0.697704 -0.04081,0.720703 0.553831,1.177591 0.912919,1.314893 0.732596,0.280134 1.439519,-0.04132 1.82581,-0.348892 0.427887,-0.340786 0.77994,-0.927006 0.832358,-1.556381 0.0811,-0.97338 -0.372676,-1.741882 -0.886038,-2.200433 C 12.163274,9.5096244 11.446629,9.1837584 10.413379,9.257724 8.889457,9.366792 7.8286279,10.480591 7.432993,11.645996 7.170524,12.419141 7.1095123,13.03244 6.7617301,13.658567 5.8964498,15.216424 3.7884064,16.67066 1.364805,15.671137 0.2878905,15.227025 -0.82600151,14.174068 -0.94431904,12.638862 -1.0645699,11.078483 -0.2406174,9.8814085 0.8009577,9.3918864 2.2091395,8.7300649 3.6329503,9.3607585 4.1840959,10.277428 4.6030138,10.974191 4.557094,12.16233 3.9424125,12.746188 3.4776821,13.187616 2.7676161,13.262655 2.3045507,13.014565 1.7764993,12.731642 1.6659426,11.844382 2.1434285,11.726511 2.5197564,11.633601 2.438497,12.015876 2.7878371,11.96805 3.3713951,11.88803 3.1420912,10.881278 2.573061,10.62632 1.539569,10.163314 0.5879271,11.135219 0.4787399,11.994888 c -0.1193385,0.939675 0.360538,1.606836 0.8323578,1.985732 0.391366,0.314327 0.964639,0.599183 1.6647153,0.590381 1.6799684,-0.02094 3.0808998,-1.483785 2.9266789,-3.51533 C 5.8093632,9.8291557 5.1440624,9.1706617 4.3451645,8.3722356 3.6580048,7.6855091 3.0442899,6.7791683 2.9489325,5.5546102 2.8414639,4.1741794 3.2775682,3.1695308 3.8618514,2.441822 4.4315529,1.7323363 5.3629739,1.1339334 6.4932198,1.019631 Z"
     id="path3763"
     inkscape:connector-curvature="0"
     style="fill:#e0e0e0;fill-opacity:1;stroke:none;stroke-width:0.02684579;stroke-opacity:1;image-rendering:auto"
     inkscape:export-xdpi="96"
     inkscape:export-ydpi="96" />
</svg>
